<?xml version="1.0" encoding="UTF-8" standalone="no" ?>
<!DOCTYPE svg PUBLIC "-//W3C//DTD SVG 1.1//EN" "http://www.w3.org/Graphics/SVG/1.1/DTD/svg11.dtd">
<svg xmlns="http://www.w3.org/2000/svg" xmlns:xlink="http://www.w3.org/1999/xlink" version="1.1" width="300" height="203" viewBox="0 0 300 203" xml:space="preserve">
<desc>Created with Fabric.js 3.6.6</desc>
<defs>
</defs>
<rect x="0" y="0" width="100%" height="100%" fill="rgba(204, 39, 39, 0)"></rect>
<g transform="matrix(11.66 0 0 11.66 150.28 77.28)"  >
<g style=""   >
		<g transform="matrix(1 0 0 1 0 0)"  >
<path style="stroke: none; stroke-width: 1; stroke-dasharray: none; stroke-linecap: butt; stroke-dashoffset: 0; stroke-linejoin: miter; stroke-miterlimit: 4; fill: rgb(0,0,0); fill-rule: nonzero; opacity: 1;"  transform=" translate(-8, -8)" d="M 14.5 3 a 0.5 0.5 0 0 1 0.5 0.5 v 9 a 0.5 0.5 0 0 1 -0.5 0.5 h -13 a 0.5 0.5 0 0 1 -0.5 -0.5 v -9 a 0.5 0.5 0 0 1 0.5 -0.5 h 13 z m -13 -1 A 1.5 1.5 0 0 0 0 3.5 v 9 A 1.5 1.5 0 0 0 1.5 14 h 13 a 1.5 1.5 0 0 0 1.5 -1.5 v -9 A 1.5 1.5 0 0 0 14.5 2 h -13 z" stroke-linecap="round" />
</g>
		<g transform="matrix(1 0 0 1 0 0)"  >
<path style="stroke: none; stroke-width: 1; stroke-dasharray: none; stroke-linecap: butt; stroke-dashoffset: 0; stroke-linejoin: miter; stroke-miterlimit: 4; fill: rgb(0,0,0); fill-rule: nonzero; opacity: 1;"  transform=" translate(-8, -8)" d="M 5 8 a 0.5 0.5 0 0 1 0.5 -0.5 h 7 a 0.5 0.5 0 0 1 0 1 h -7 A 0.5 0.5 0 0 1 5 8 z m 0 -2.5 a 0.5 0.5 0 0 1 0.5 -0.5 h 7 a 0.5 0.5 0 0 1 0 1 h -7 a 0.5 0.5 0 0 1 -0.5 -0.5 z m 0 5 a 0.5 0.5 0 0 1 0.5 -0.5 h 7 a 0.5 0.5 0 0 1 0 1 h -7 a 0.5 0.5 0 0 1 -0.5 -0.5 z m -1 -5 a 0.5 0.5 0 1 1 -1 0 a 0.5 0.5 0 0 1 1 0 z M 4 8 a 0.5 0.5 0 1 1 -1 0 a 0.5 0.5 0 0 1 1 0 z m 0 2.5 a 0.5 0.5 0 1 1 -1 0 a 0.5 0.5 0 0 1 1 0 z" stroke-linecap="round" />
</g>
</g>
</g>
<g transform="matrix(2.7 0 0 2.7 155.25 177.46)" style=""  >
		<text xml:space="preserve" font-family="'Open Sans', sans-serif" font-size="101" font-style="normal" font-weight="normal" style="stroke: none; stroke-width: 0; stroke-dasharray: 1 10; stroke-linecap: butt; stroke-dashoffset: 0; stroke-linejoin: miter; stroke-miterlimit: 4; fill: rgb(48,183,48); fill-rule: nonzero; opacity: 1; white-space: pre;" ><tspan x="-19" y="5.65" style="stroke-width: 1; font-family: 'Oswald', sans-serif; font-size: 18px; font-style: normal; font-weight: bold; fill: rgb(0,0,0); white-space: pre; ">ToDo </tspan></text>
</g>
<g transform="matrix(1 0 0 1 245.5 5.5)"  >
<path style="stroke: rgb(63,215,18); stroke-width: 1; stroke-dasharray: none; stroke-linecap: round; stroke-dashoffset: 0; stroke-linejoin: round; stroke-miterlimit: 10; fill: none; fill-rule: nonzero; opacity: 1;"  transform=" translate(-281, -149)" d="M 280.999 149 L 281.001 149" stroke-linecap="round" />
</g>
<g transform="matrix(1 0 0 1 40.5 104.5)"  >
<path style="stroke: rgb(63,215,18); stroke-width: 1; stroke-dasharray: none; stroke-linecap: round; stroke-dashoffset: 0; stroke-linejoin: round; stroke-miterlimit: 10; fill: none; fill-rule: nonzero; opacity: 1;"  transform=" translate(-76, -248)" d="M 75.999 248 L 76.001 248" stroke-linecap="round" />
</g>
<g transform="matrix(1 0 0 1 0.5 0.5)"  >
<path style="stroke: rgb(63,215,18); stroke-width: 1; stroke-dasharray: none; stroke-linecap: round; stroke-dashoffset: 0; stroke-linejoin: round; stroke-miterlimit: 10; fill: none; fill-rule: nonzero; opacity: 1;"  transform=" translate(-36, -144)" d="M 35.999 144 L 36.001 144" stroke-linecap="round" />
</g>
<g transform="matrix(1 0 0 1 0.5 0.5)"  >
<path style="stroke: rgb(63,215,18); stroke-width: 1; stroke-dasharray: none; stroke-linecap: round; stroke-dashoffset: 0; stroke-linejoin: round; stroke-miterlimit: 10; fill: none; fill-rule: nonzero; opacity: 1;"  transform=" translate(-36, -144)" d="M 35.999 144 L 36.001 144" stroke-linecap="round" />
</g>
</svg>